<?xml version="1.0" encoding="iso-8859-1"?>
<!-- Generator: Adobe Illustrator 19.0.0, SVG Export Plug-In . SVG Version: 6.00 Build 0)  -->
<svg version="1.1" id="Layer_1" xmlns="http://www.w3.org/2000/svg" xmlns:xlink="http://www.w3.org/1999/xlink" x="0px" y="0px"
	 viewBox="0 0 511.968 511.968" style="enable-background:new 0 0 511.968 511.968;" xml:space="preserve">
<g>
	<g>
		<g>
			<path fill="currentColor" d="M68.232,426.665c-4.557,0-8.841,1.775-12.066,5.001c-3.226,3.226-5.001,7.509-5.001,12.066
				c0,4.557,1.775,8.841,5.001,12.066c6.451,6.451,17.681,6.451,24.132,0c3.226-3.226,5-7.509,5-12.066
				c0-4.557-1.775-8.841-5-12.066C77.073,428.44,72.789,426.665,68.232,426.665z"/>
			<path fill="currentColor" d="M509.464,38.701L473.265,2.502c-3.337-3.336-8.73-3.336-12.066,0l-18.108,18.099l-6.033-6.033
				c-3.337-3.337-8.738-3.337-12.066,0L400.86,38.701c-3.337,3.328-3.337,8.73,0,12.066l12.066,12.066l-91.273,91.264
				l-42.232-42.231c-3.328-3.337-8.73-3.337-12.066,0l-24.141,24.132c-1.596,1.604-2.5,3.763-2.5,6.033s0.904,4.437,2.5,6.033
				l24.141,24.141l-12.066,12.075l-0.009-0.009c-8.064-8.064-18.773-12.51-30.165-12.51c-11.392,0-22.101,4.446-30.165,12.51
				c-3.337,3.337-3.337,8.738,0,12.066c3.328,3.337,8.73,3.337,12.066,0c9.984-9.984,26.214-9.984,36.198,0v0.008l-36.198,36.198
				c-8.064-8.073-18.773-12.51-30.165-12.51c-11.401,0-22.11,4.437-30.174,12.51c-3.337,3.328-3.337,8.73,0,12.066
				c3.328,3.328,8.73,3.328,12.066,0c9.975-9.975,26.214-9.993,36.207,0l-36.207,36.207c-8.073-8.073-18.782-12.51-30.182-12.51
				c-11.383,0-22.093,4.437-30.165,12.51l-24.132,24.132c-3.328,3.337-3.328,8.73,0,12.066l24.141,24.141l-34.543,34.543
				c-16,1.024-31.71,7.561-43.904,19.755c-26.607,26.624-26.607,69.939,0,96.555c13.312,13.303,30.788,19.959,48.273,19.959
				s34.97-6.656,48.273-19.959c12.194-12.194,18.731-27.904,19.755-43.895l34.552-34.56l24.141,24.149
				c1.664,1.664,3.849,2.5,6.033,2.5c2.185,0,4.369-0.836,6.033-2.5l24.132-24.141c3.337-3.328,3.337-8.73,0-12.066l-24.141-24.132
				l12.075-12.075c8.064,8.073,18.773,12.51,30.165,12.51c11.401,0,22.11-4.437,30.174-12.51c3.337-3.328,3.337-8.73,0-12.066
				c-3.328-3.328-8.73-3.328-12.066,0c-9.975,9.975-26.214,9.993-36.207,0l36.207-36.207c8.064,8.064,18.773,12.51,30.165,12.51
				c11.392,0,22.101-4.446,30.165-12.51c3.337-3.336,3.337-8.73,0-12.066c-3.328-3.336-8.73-3.336-12.066,0
				c-9.984,9.984-26.214,9.984-36.198,0l36.198-36.207v0.008c8.073,8.064,18.782,12.51,30.174,12.51
				c11.392,0,22.101-4.446,30.174-12.51L400.1,244.61c3.328-3.337,3.328-8.738,0-12.066l-42.231-42.24l91.255-91.264l12.075,12.066
				c1.664,1.664,3.849,2.5,6.033,2.5c2.185,0,4.369-0.836,6.033-2.5l24.132-24.132c3.336-3.337,3.336-8.73,0-12.066l-6.033-6.033
				l18.099-18.108C512.8,47.43,512.8,42.029,509.464,38.701z M146.677,292.883l-12.075,12.066l-16.99-16.99
				C127.11,283.454,138.81,285.015,146.677,292.883z M92.363,467.868c-6.443,6.451-15.01,10.001-24.132,10.001
				c-9.114,0-17.69-3.55-24.132-10.001c-6.451-6.443-10.001-15.019-10.001-24.132c0-9.122,3.55-17.698,10.001-24.141
				c12.885-12.894,35.388-12.894,48.265,0c6.451,6.443,10.001,15.019,10.001,24.141C102.364,452.849,98.814,461.425,92.363,467.868z
				 M134.185,426.046c-0.094-0.341-0.247-0.666-0.341-1.016c-0.64-2.244-1.374-4.463-2.244-6.647
				c-0.35-0.87-0.768-1.715-1.152-2.577c-0.751-1.681-1.545-3.337-2.441-4.958c-0.486-0.887-1.015-1.758-1.545-2.62
				c-0.939-1.536-1.946-3.038-3.012-4.506c-0.521-0.717-1.016-1.442-1.57-2.133c-1.664-2.116-3.422-4.181-5.376-6.135
				c-1.954-1.954-4.019-3.712-6.135-5.385c-0.683-0.538-1.391-1.024-2.091-1.536c-1.493-1.084-3.021-2.108-4.582-3.055
				c-0.845-0.512-1.681-1.024-2.543-1.502c-1.681-0.93-3.405-1.758-5.146-2.534c-0.691-0.307-1.365-0.674-2.065-0.956
				c-2.321-0.939-4.685-1.707-7.066-2.381c-0.324-0.094-0.631-0.239-0.964-0.324l24.559-24.559l48.273,48.265L134.185,426.046z
				 M213.05,407.529l-12.066,12.066l-24.141-24.141l-60.339-60.331l-24.141-24.141l12.066-12.066L213.05,407.529z M194.95,365.289
				l-48.273-48.273l12.066-12.066l48.273,48.273L194.95,365.289z M219.083,341.156l-48.273-48.273l36.207-36.207l48.273,48.273
				L219.083,341.156z M267.356,292.883l-48.273-48.273l36.207-36.198l48.265,48.265L267.356,292.883z M267.356,196.346
				l12.066-12.075l48.265,48.273L315.62,244.61L267.356,196.346z M327.686,256.685v-0.009l12.075-12.066l16.99,16.99
				C347.245,266.114,335.546,264.544,327.686,256.685z M382.001,238.577l-12.066,12.075l-24.141-24.141l-60.339-60.339
				l-24.141-24.141l12.075-12.066l42.231,42.232l24.141,24.141L382.001,238.577z M467.232,93.007l-48.273-48.273l12.066-12.066
				l6.033,6.033l36.207,36.207l6.033,6.033L467.232,93.007z"/>
		</g>
	</g>
</g>
</svg>
