<svg width="0" height="0" class="hidden">
  <symbol aria-hidden="true" focusable="false" data-prefix="fas" data-icon="car-battery" role="img" xmlns="http://www.w3.org/2000/svg" viewBox="0 0 512 512" id="battery">
    <path fill="currentColor" d="M448 128V80C448 71.16 440.8 64 432 64h-96C327.2 64 320 71.16 320 80V128H192V80C192 71.16 184.8 64 176 64h-96C71.16 64 64 71.16 64 80V128C28.8 128 0 156.8 0 191.1v192C0 419.2 28.8 448 63.1 448H448c35.2 0 64-28.8 64-63.1V191.1C512 156.8 483.2 128 448 128zM176 272h-96C71.16 272 64 264.8 64 256s7.164-16 16-16h96C184.8 240 192 247.2 192 256S184.8 272 176 272zM432 272h-32v32c0 8.836-7.164 16-16 16s-16-7.164-16-16v-32h-32C327.2 272 320 264.8 320 256s7.164-16 16-16h32v-32C368 199.2 375.2 192 384 192s16 7.164 16 16v32h32C440.8 240 448 247.2 448 256S440.8 272 432 272z"></path>
  </symbol>
  <symbol version="1.1" id="brake" xmlns="http://www.w3.org/2000/svg" xmlns:xlink="http://www.w3.org/1999/xlink" x="0px" y="0px" xml:space="preserve" viewBox="0 0 433.001 433.001">
    <g>
      <path fill="currentColor" d="M428.204,192.538c-11.473-51.494-42.312-95.436-86.835-123.731c-27.493-17.471-58.783-27.834-91.005-30.26
		c-0.28-3.159-0.939-6.324-2.039-9.428c-4.908-13.854-17.038-23.412-31.655-24.943l-35.797-3.752
		c-19.693-2.064-39.013,4.782-53.014,18.781L19.143,127.921C5.144,141.92-1.702,161.242,0.361,180.934l3.752,35.797
		c1.532,14.617,11.09,26.747,24.943,31.655c3.108,1.101,6.276,1.781,9.439,2.06c4.745,62.002,38.275,118.231,90.993,151.733
		c32.771,20.827,69.392,30.763,105.617,30.76c65.369-0.005,129.419-32.372,167.009-91.506
		C430.411,296.909,439.676,244.03,428.204,192.538z M85.659,222.2l44.156-44.155c1.315,0.689,2.736,1.041,4.149,1.041
		c2.96,0,5.86-1.46,7.58-4.13c-0.01,0-0.01,0-0.01,0c1.811-2.822,1.847-6.266,0.405-9.036l28.438-28.438
		c1.598,1.266,3.578,1.954,5.606,1.954c1.49,0,3.011-0.37,4.41-1.16c4.33-2.45,5.86-7.94,3.41-12.27
		c-0.234-0.416-0.504-0.797-0.791-1.159l39.124-39.124c33.202-2.996,65.623,4.886,93.938,22.879
		c69.958,44.469,90.702,137.57,46.243,207.536c-21.543,33.892-54.995,57.366-94.194,66.098
		c-39.198,8.732-79.451,1.677-113.343-19.866c-24.146-15.347-43.305-37.081-55.401-62.851
		C88.039,275.363,83.331,248.696,85.659,222.2z M22.015,214.854l-3.752-35.797c-1.495-14.267,3.465-28.266,13.608-38.409
		L140.587,31.932c10.143-10.143,24.138-15.102,38.408-13.608l35.797,3.752c7.766,0.814,13.958,5.693,16.565,13.052
		c2.606,7.359,0.867,15.048-4.653,20.569L55.636,226.766c-5.521,5.521-13.214,7.259-20.568,4.653
		C27.709,228.812,22.829,222.619,22.015,214.854z M386.922,331.778c-34.167,53.75-92.37,83.168-151.788,83.166
		c-32.919-0.001-66.213-9.031-95.992-27.957c-48.32-30.707-78.912-82.428-82.812-139.355c3.905-1.657,7.565-3.994,10.818-6.979
		c0.717,22.929,6.104,45.567,15.938,66.515c13.551,28.869,35.005,53.21,62.04,70.394c27.334,17.375,58.354,26.333,89.977,26.332
		c12.28,0,24.658-1.353,36.936-4.088c43.892-9.778,81.349-36.062,105.473-74.013c49.781-78.344,26.553-182.59-51.78-232.383
		c-25.567-16.247-55.144-25.244-85.18-26.182c3-3.262,5.347-6.931,7.009-10.851c29.787,1.996,58.749,11.476,84.155,27.621
		c40.465,25.717,68.493,65.654,78.92,112.454C421.062,243.252,412.64,291.312,386.922,331.778z"></path>
      <path fill="currentColor" d="M186.957,311.749c14.671,9.324,31.321,14.132,48.293,14.132c6.594,0,13.237-0.726,19.829-2.195
		c23.559-5.249,43.663-19.358,56.609-39.729c12.947-20.37,17.187-44.563,11.938-68.122c-5.249-23.559-19.358-43.663-39.729-56.61
		c-42.052-26.727-98.005-14.259-124.732,27.792C132.439,229.069,144.906,285.023,186.957,311.749z M174.356,196.673
		c13.772-21.669,37.233-33.527,61.187-33.527c13.271,0,26.693,3.642,38.699,11.272c16.313,10.368,27.611,26.468,31.814,45.333
		s0.809,38.239-9.56,54.552c-10.367,16.313-26.467,27.611-45.333,31.814c-18.863,4.204-38.238,0.809-54.553-9.559
		C162.937,275.156,152.954,230.347,174.356,196.673z"></path>
      <path fill="currentColor" d="M346.623,283.286c0.97,0.34,1.96,0.5,2.939,0.5c3.73,0,7.221-2.34,8.5-6.06c1.63-4.7-0.859-9.83-5.56-11.45
		c-4.7-1.63-9.82,0.87-11.45,5.57C339.433,276.536,341.923,281.666,346.623,283.286z"></path>
      <path fill="currentColor" d="M332.623,172.886c1.859,0,3.72-0.57,5.33-1.75c4-2.95,4.859-8.58,1.92-12.59c-2.95-4-8.58-4.86-12.59-1.91
		c-4,2.94-4.86,8.57-1.91,12.58C327.133,171.616,329.864,172.886,332.623,172.886z"></path>
      <path fill="currentColor" d="M354.743,226.246c0.449,0,0.91-0.03,1.37-0.1c4.92-0.76,8.29-5.35,7.529-10.26c-0.75-4.92-5.35-8.29-10.26-7.53
		c-4.91,0.75-8.28,5.35-7.53,10.26C346.543,223.066,350.373,226.246,354.743,226.246z"></path>
      <path fill="currentColor" d="M212.093,344.756c-4.86-1.05-9.65,2.05-10.689,6.91c-1.04,4.86,2.05,9.64,6.909,10.69c0.641,0.13,1.271,0.2,1.9,0.2
		c4.15,0,7.89-2.89,8.79-7.12C220.043,350.576,216.953,345.796,212.093,344.756z"></path>
      <path fill="currentColor" d="M265.513,343.056c-4.79,1.34-7.58,6.31-6.24,11.1c1.12,3.97,4.73,6.57,8.66,6.57c0.811,0,1.62-0.11,2.44-0.33
		c4.78-1.34,7.58-6.31,6.229-11.1C275.263,344.516,270.303,341.716,265.513,343.056z"></path>
      <path fill="currentColor" d="M312.074,316.776c-3.61,3.41-3.78,9.11-0.37,12.73c1.77,1.87,4.16,2.82,6.55,2.82c2.21,0,4.43-0.81,6.17-2.45
		c3.62-3.41,3.79-9.1,0.38-12.72C321.393,313.536,315.693,313.366,312.074,316.776z"></path>
      <path fill="currentColor" d="M163.983,321.386c-3.829-3.17-9.5-2.65-12.68,1.18c-3.17,3.82-2.64,9.5,1.18,12.67c1.681,1.4,3.721,2.08,5.74,2.08
		c2.59,0,5.15-1.11,6.931-3.25C168.333,330.236,167.803,324.566,163.983,321.386z"></path>
      <path fill="currentColor" d="M284.133,134.966c0.05,0.02,0.1,0.05,0.14,0.07c0.011,0,0.011,0,0.011,0c1.26,0.62,2.6,0.91,3.92,0.91
		c3.34,0,6.55-1.86,8.109-5.07c2.17-4.47,0.311-9.85-4.159-12.03c-0.03-0.01-0.061-0.03-0.091-0.04c-0.02-0.01-0.029-0.01-0.04-0.02
		c-4.479-2.17-9.859-0.3-12.029,4.17C277.833,127.416,279.683,132.786,284.133,134.966z"></path>
      <path fill="currentColor" d="M120.513,273.506c-4.59,1.9-6.76,7.17-4.859,11.76c1.439,3.46,4.789,5.55,8.319,5.55c1.15,0,2.32-0.22,3.45-0.69
		c4.58-1.91,6.76-7.17,4.86-11.76C130.373,273.766,125.103,271.596,120.513,273.506z"></path>
      <path fill="currentColor" d="M114.373,233.676c0.27,0.03,0.54,0.04,0.81,0.04c4.61,0,8.54-3.52,8.96-8.2c0.44-4.95-3.22-9.32-8.17-9.77
		c-4.95-0.44-9.319,3.22-9.76,8.17C105.763,228.866,109.423,233.236,114.373,233.676z"></path>
      <path fill="currentColor" d="M231.583,123.826c0.1,0,0.2,0,0.3-0.01c4.97-0.16,8.87-4.32,8.7-9.29c-0.16-4.96-4.311-8.86-9.28-8.7
		c-4.97,0.16-8.87,4.32-8.7,9.29C222.753,119.986,226.753,123.826,231.583,123.826z"></path>
      <path fill="currentColor" d="M202.236,287.709c10.047,6.385,21.448,9.677,33.069,9.677c4.515,0,9.064-0.497,13.578-1.503
		c16.132-3.594,29.898-13.256,38.764-27.204c8.865-13.949,11.769-30.515,8.175-46.647c-3.595-16.132-13.256-29.899-27.204-38.764
		c-0.001,0-0.001,0-0.001,0c-28.795-18.303-67.111-9.763-85.411,19.031C164.905,231.092,173.442,269.408,202.236,287.709z
		 M198.397,211.953c8.351-13.139,22.576-20.329,37.1-20.329c8.047,0,16.187,2.208,23.465,6.834
		c9.892,6.286,16.742,16.048,19.291,27.488s0.49,23.186-5.797,33.077c-6.286,9.891-16.048,16.742-27.487,19.291
		c-11.438,2.549-23.186,0.49-33.077-5.796C191.473,259.54,185.42,232.371,198.397,211.953z"></path>
      <path fill="currentColor" d="M67.312,183.42c6.216,0,12.06-2.42,16.455-6.816c4.396-4.396,6.815-10.239,6.815-16.455c0-6.216-2.421-12.06-6.815-16.455
		c-4.396-4.395-10.239-6.816-16.455-6.816c-6.217,0-12.061,2.421-16.455,6.816c-4.395,4.395-6.815,10.239-6.815,16.455
		c0,6.216,2.42,12.06,6.815,16.455C55.252,181,61.095,183.42,67.312,183.42z M63.586,156.422c0.995-0.995,2.318-1.543,3.727-1.543
		c1.407,0,2.731,0.548,3.727,1.544c0.996,0.996,1.544,2.319,1.544,3.727s-0.548,2.731-1.544,3.727
		c-0.995,0.995-2.319,1.544-3.727,1.544c-1.408,0-2.731-0.548-3.727-1.544c-0.996-0.996-1.544-2.319-1.544-3.727
		S62.589,157.418,63.586,156.422z"></path>
      <path fill="currentColor" d="M160.088,90.644c6.216,0,12.06-2.42,16.455-6.816c4.396-4.396,6.815-10.239,6.815-16.455c0-6.216-2.421-12.06-6.815-16.455
		c-4.396-4.395-10.239-6.816-16.455-6.816c-6.217,0-12.061,2.421-16.455,6.816c-4.395,4.395-6.815,10.239-6.815,16.455
		c0,6.216,2.42,12.06,6.815,16.455C148.028,88.223,153.872,90.644,160.088,90.644z M156.362,63.646
		c0.995-0.995,2.318-1.543,3.727-1.543c1.407,0,2.731,0.548,3.727,1.544c0.996,0.996,1.544,2.319,1.544,3.727
		s-0.548,2.731-1.544,3.727c-0.995,0.995-2.319,1.544-3.727,1.544c-1.408,0-2.731-0.548-3.727-1.544
		c-0.996-0.996-1.544-2.319-1.544-3.727S155.366,64.642,156.362,63.646z"></path>
    </g>
  </symbol>
  <symbol version="1.1" id="check" xmlns="http://www.w3.org/2000/svg" xmlns:xlink="http://www.w3.org/1999/xlink" x="0px" y="0px" xml:space="preserve" viewBox="0 0 512 512">
    <circle style="fill:#6DC180;" cx="256" cy="256" r="256"/>
<path style="fill:#5CA15D;" d="M256,0v512c141.385,0,256-114.615,256-256S397.385,0,256,0z"/>
<polygon style="fill:#F2F2F4;" points="219.429,367.932 108.606,257.108 147.394,218.32 219.429,290.353 355.463,154.32 
	394.251,193.108 "/>
<polygon style="fill:#DFDFE1;" points="256,331.361 394.251,193.108 355.463,154.32 256,253.782 "/>
  </symbol>
  <symbol version="1.1" id="damper" xmlns="http://www.w3.org/2000/svg" xmlns:xlink="http://www.w3.org/1999/xlink" x="0px" y="0px" xml:space="preserve" viewBox="0 0 511.968 511.968">
    <g>
      <g>
        <g>
          <path fill="currentColor" d="M68.232,426.665c-4.557,0-8.841,1.775-12.066,5.001c-3.226,3.226-5.001,7.509-5.001,12.066
				c0,4.557,1.775,8.841,5.001,12.066c6.451,6.451,17.681,6.451,24.132,0c3.226-3.226,5-7.509,5-12.066
				c0-4.557-1.775-8.841-5-12.066C77.073,428.44,72.789,426.665,68.232,426.665z"></path>
          <path fill="currentColor" d="M509.464,38.701L473.265,2.502c-3.337-3.336-8.73-3.336-12.066,0l-18.108,18.099l-6.033-6.033
				c-3.337-3.337-8.738-3.337-12.066,0L400.86,38.701c-3.337,3.328-3.337,8.73,0,12.066l12.066,12.066l-91.273,91.264
				l-42.232-42.231c-3.328-3.337-8.73-3.337-12.066,0l-24.141,24.132c-1.596,1.604-2.5,3.763-2.5,6.033s0.904,4.437,2.5,6.033
				l24.141,24.141l-12.066,12.075l-0.009-0.009c-8.064-8.064-18.773-12.51-30.165-12.51c-11.392,0-22.101,4.446-30.165,12.51
				c-3.337,3.337-3.337,8.738,0,12.066c3.328,3.337,8.73,3.337,12.066,0c9.984-9.984,26.214-9.984,36.198,0v0.008l-36.198,36.198
				c-8.064-8.073-18.773-12.51-30.165-12.51c-11.401,0-22.11,4.437-30.174,12.51c-3.337,3.328-3.337,8.73,0,12.066
				c3.328,3.328,8.73,3.328,12.066,0c9.975-9.975,26.214-9.993,36.207,0l-36.207,36.207c-8.073-8.073-18.782-12.51-30.182-12.51
				c-11.383,0-22.093,4.437-30.165,12.51l-24.132,24.132c-3.328,3.337-3.328,8.73,0,12.066l24.141,24.141l-34.543,34.543
				c-16,1.024-31.71,7.561-43.904,19.755c-26.607,26.624-26.607,69.939,0,96.555c13.312,13.303,30.788,19.959,48.273,19.959
				s34.97-6.656,48.273-19.959c12.194-12.194,18.731-27.904,19.755-43.895l34.552-34.56l24.141,24.149
				c1.664,1.664,3.849,2.5,6.033,2.5c2.185,0,4.369-0.836,6.033-2.5l24.132-24.141c3.337-3.328,3.337-8.73,0-12.066l-24.141-24.132
				l12.075-12.075c8.064,8.073,18.773,12.51,30.165,12.51c11.401,0,22.11-4.437,30.174-12.51c3.337-3.328,3.337-8.73,0-12.066
				c-3.328-3.328-8.73-3.328-12.066,0c-9.975,9.975-26.214,9.993-36.207,0l36.207-36.207c8.064,8.064,18.773,12.51,30.165,12.51
				c11.392,0,22.101-4.446,30.165-12.51c3.337-3.336,3.337-8.73,0-12.066c-3.328-3.336-8.73-3.336-12.066,0
				c-9.984,9.984-26.214,9.984-36.198,0l36.198-36.207v0.008c8.073,8.064,18.782,12.51,30.174,12.51
				c11.392,0,22.101-4.446,30.174-12.51L400.1,244.61c3.328-3.337,3.328-8.738,0-12.066l-42.231-42.24l91.255-91.264l12.075,12.066
				c1.664,1.664,3.849,2.5,6.033,2.5c2.185,0,4.369-0.836,6.033-2.5l24.132-24.132c3.336-3.337,3.336-8.73,0-12.066l-6.033-6.033
				l18.099-18.108C512.8,47.43,512.8,42.029,509.464,38.701z M146.677,292.883l-12.075,12.066l-16.99-16.99
				C127.11,283.454,138.81,285.015,146.677,292.883z M92.363,467.868c-6.443,6.451-15.01,10.001-24.132,10.001
				c-9.114,0-17.69-3.55-24.132-10.001c-6.451-6.443-10.001-15.019-10.001-24.132c0-9.122,3.55-17.698,10.001-24.141
				c12.885-12.894,35.388-12.894,48.265,0c6.451,6.443,10.001,15.019,10.001,24.141C102.364,452.849,98.814,461.425,92.363,467.868z
				 M134.185,426.046c-0.094-0.341-0.247-0.666-0.341-1.016c-0.64-2.244-1.374-4.463-2.244-6.647
				c-0.35-0.87-0.768-1.715-1.152-2.577c-0.751-1.681-1.545-3.337-2.441-4.958c-0.486-0.887-1.015-1.758-1.545-2.62
				c-0.939-1.536-1.946-3.038-3.012-4.506c-0.521-0.717-1.016-1.442-1.57-2.133c-1.664-2.116-3.422-4.181-5.376-6.135
				c-1.954-1.954-4.019-3.712-6.135-5.385c-0.683-0.538-1.391-1.024-2.091-1.536c-1.493-1.084-3.021-2.108-4.582-3.055
				c-0.845-0.512-1.681-1.024-2.543-1.502c-1.681-0.93-3.405-1.758-5.146-2.534c-0.691-0.307-1.365-0.674-2.065-0.956
				c-2.321-0.939-4.685-1.707-7.066-2.381c-0.324-0.094-0.631-0.239-0.964-0.324l24.559-24.559l48.273,48.265L134.185,426.046z
				 M213.05,407.529l-12.066,12.066l-24.141-24.141l-60.339-60.331l-24.141-24.141l12.066-12.066L213.05,407.529z M194.95,365.289
				l-48.273-48.273l12.066-12.066l48.273,48.273L194.95,365.289z M219.083,341.156l-48.273-48.273l36.207-36.207l48.273,48.273
				L219.083,341.156z M267.356,292.883l-48.273-48.273l36.207-36.198l48.265,48.265L267.356,292.883z M267.356,196.346
				l12.066-12.075l48.265,48.273L315.62,244.61L267.356,196.346z M327.686,256.685v-0.009l12.075-12.066l16.99,16.99
				C347.245,266.114,335.546,264.544,327.686,256.685z M382.001,238.577l-12.066,12.075l-24.141-24.141l-60.339-60.339
				l-24.141-24.141l12.075-12.066l42.231,42.232l24.141,24.141L382.001,238.577z M467.232,93.007l-48.273-48.273l12.066-12.066
				l6.033,6.033l36.207,36.207l6.033,6.033L467.232,93.007z"></path>
        </g>
      </g>
    </g>
  </symbol>
  <symbol version="1.1" id="dashboard" xmlns="http://www.w3.org/2000/svg" xmlns:xlink="http://www.w3.org/1999/xlink" x="0px" y="0px" xml:space="preserve" viewBox="0 0 512.009 512.009">
    <g>
      <g>
        <g>
          <path fill="currentColor" d="M256.009,42.671c-0.002,0-0.005,0-0.007,0c-0.001,0-0.001,0-0.002,0c-0.001,0-0.002,0-0.003,0
				c-70.671,0.003-134.648,28.637-180.967,74.935c-0.016,0.016-0.034,0.029-0.05,0.045c-0.017,0.017-0.03,0.035-0.047,0.052
				C28.688,163.976,0.072,227.867,0.011,298.445C0.011,298.521,0,298.595,0,298.671c0,0.073,0.01,0.143,0.011,0.215
				c0.05,60.201,20.962,117.239,58.515,162.704c4.053,4.907,10.084,7.748,16.448,7.748h362.048c6.364,0,12.395-2.841,16.448-7.748
				c37.607-45.53,58.539-102.65,58.539-162.919C512.009,157.289,397.391,42.671,256.009,42.671z M426.68,426.671H85.316
				c-23.281-30.977-37.712-67.661-41.583-106.667h62.934c11.782,0,21.333-9.551,21.333-21.333c0-11.782-9.551-21.333-21.333-21.333
				H43.734c4.259-42.905,21.23-82.066,47.091-113.671l14.32,14.32c8.331,8.331,21.839,8.331,30.17,0
				c8.331-8.331,8.331-21.839,0-30.17l-14.321-14.321c31.605-25.864,70.765-42.837,113.672-47.098v62.941
				c0,11.782,9.551,21.333,21.333,21.333c11.782,0,21.333-9.551,21.333-21.333V86.396c42.906,4.259,82.068,21.232,113.676,47.096
				l-14.325,14.325c-8.331,8.331-8.331,21.839,0,30.17c8.331,8.331,21.839,8.331,30.17,0l14.326-14.326
				c25.867,31.607,42.842,70.771,47.103,113.677h-62.95c-11.782,0-21.333,9.551-21.333,21.333c0,11.782,9.551,21.333,21.333,21.333
				h62.95C464.409,359.001,449.97,395.686,426.68,426.671z"></path>
          <polygon fill="currentColor" points="319.991,220.655 199.33,281.007 259.661,341.338 			"></polygon>
          <path fill="currentColor" d="M320,362.671H192c-11.782,0-21.333,9.551-21.333,21.333s9.551,21.333,21.333,21.333h128
				c11.782,0,21.333-9.551,21.333-21.333S331.782,362.671,320,362.671z"></path>
        </g>
      </g>
    </g>
  </symbol>
  <symbol aria-hidden="true" focusable="false" data-prefix="fas" data-icon="stethoscope" role="img" xmlns="http://www.w3.org/2000/svg" viewBox="0 0 576 512" id="diag">
    <path fill="currentColor" d="M480 112c-44.18 0-80 35.82-80 80c0 32.84 19.81 60.98 48.11 73.31v78.7c0 57.25-50.25 104-112 104c-60 0-109.3-44.1-111.9-99.23C296.1 333.8 352 269.3 352 191.1V36.59c0-11.38-8.15-21.38-19.28-23.5L269.8 .4775c-13-2.625-25.54 5.766-28.16 18.77L238.4 34.99c-2.625 13 5.812 25.59 18.81 28.22l30.69 6.059L287.9 190.7c0 52.88-42.13 96.63-95.13 97.13c-53.38 .5-96.81-42.56-96.81-95.93L95.89 69.37l30.72-6.112c13-2.5 21.41-15.15 18.78-28.15L142.3 19.37c-2.5-13-15.15-21.41-28.15-18.78L51.28 12.99C40.15 15.24 32 25.09 32 36.59v155.4c0 77.25 55.11 142 128.1 156.8C162.7 439.3 240.6 512 336 512c97 0 176-75.37 176-168V265.3c28.23-12.36 48-40.46 48-73.25C560 147.8 524.2 112 480 112zM480 216c-13.25 0-24-10.75-24-24S466.7 168 480 168S504 178.7 504 192S493.3 216 480 216z"></path>
  </symbol>
  <symbol aria-hidden="true" focusable="false" data-prefix="fas" data-icon="charging-station" role="img" xmlns="http://www.w3.org/2000/svg" viewBox="0 0 576 512" id="electric">
    <path fill="currentColor" d="M336 448h-320C7.125 448 0 455.1 0 464v32C0 504.9 7.125 512 16 512h320c8.875 0 16-7.125 16-16v-32C352 455.1 344.9 448 336 448zM544 128V80C544 71.12 536.9 64 528 64S512 71.12 512 80V128h-32V80C480 71.12 472.9 64 464 64S448 71.12 448 80V128h-16C423.1 128 416 135.1 416 144v32c0 35.75 23.62 65.75 56 75.88v118.6c0 14-9.531 26.92-23.28 29.17C431.2 402.5 416 389 416 372V344C416 295.4 376.6 256 328 256H320V64c0-35.38-28.62-64-64-64H96C60.62 0 32 28.62 32 64v352h288V304h8c22.12 0 40 17.88 40 40v24.62c0 39.62 28.88 75.13 68.38 79C481.8 452 520 416.4 520 372V251.9C552.4 241.8 576 211.8 576 176v-32C576 135.1 568.9 128 560 128H544zM254.4 175.8L166.4 314.8C164.2 318.1 160.1 320 156 320c-7.625 0-13.5-6.25-11.62-12.88L167.4 224H108C100.8 224 95.12 218.4 96.13 212.1l16-106.1C112.9 99.88 117.1 96 124 96H192c7.875 0 13.62 6.5 11.62 13.25L192 160h51.99C253.2 160 258.1 168.8 254.4 175.8z"></path>
  </symbol>
  <symbol version="1.1" id="engine" xmlns="http://www.w3.org/2000/svg" xmlns:xlink="http://www.w3.org/1999/xlink" x="0px" y="0px" xml:space="preserve" viewBox="0 0 512 512">
    <g>
      <g>
        <path fill="currentColor" d="M490.667,170.667h-33.685c-9.451,0-17.771,6.229-20.459,15.275L415.787,256h-2.304l-9.216-27.989
			c-2.901-8.768-11.051-14.677-20.267-14.677h-42.667V192c0-11.776-9.536-21.333-21.333-21.333h-42.667v-21.333h21.333
			c11.797,0,21.333-9.557,21.333-21.333V64c0-11.776-9.536-21.333-21.333-21.333H128c-11.797,0-21.333,9.557-21.333,21.333v64
			c0,11.776,9.536,21.333,21.333,21.333h21.333v21.333h-64C73.536,170.667,64,180.224,64,192v85.333H42.667V256
			c0-11.776-9.536-21.333-21.333-21.333C9.536,234.667,0,244.224,0,256v85.333c0,11.776,9.536,21.333,21.333,21.333
			c11.797,0,21.333-9.557,21.333-21.333V320H64v42.667c0,3.157,0.704,6.272,2.069,9.131l30.315,64
			c3.52,7.445,11.008,12.203,19.264,12.203h257.131c7.531,0,14.507-3.989,18.347-10.453l19.093-32.213h6.997l19.904,50.496
			c3.243,8.149,11.115,13.504,19.861,13.504h33.685c11.797,0,21.333-9.557,21.333-21.333V192
			C512,180.224,502.464,170.667,490.667,170.667z"></path>
      </g>
    </g>
  </symbol>
  <symbol version="1.1" id="fuel" xmlns="http://www.w3.org/2000/svg" xmlns:xlink="http://www.w3.org/1999/xlink" x="0px" y="0px" xml:space="preserve" viewBox="0 0 357.83 357.83">
    <g>
      <path fill="currentColor" d="M330.469,114.665h-3.771V63.784l-23.986-24.095l-2.455,18.996l8.609,8.716v47.265h-3.773v52h4.676v89.646
		c0,10.477-8.523,19-19,19s-19-8.523-19-19v-90.851h-27.99v-8.267h14.164L284.768,0H27.361l26.826,157.195h14.164v149.072H39.707
		v51.562h232.715v-51.562h-28.646V181.462h11.99v74.851c0,19.299,15.701,35,35,35s35-15.701,35-35v-89.647h4.703V114.665
		L330.469,114.665z M224.188,117.195H87.939L74.766,40h162.596L224.188,117.195z"></path>
    </g>
  </symbol>
  <symbol aria-hidden="true" focusable="false" data-prefix="fas" data-icon="oil-can" role="img" xmlns="http://www.w3.org/2000/svg" viewBox="0 0 640 512" id="oil">
    <path fill="currentColor" d="M637.9 168c-3.484-6.062-10.5-9.103-17.36-7.65l-169.7 37.61l-49.97-30.44C392.8 162.6 383.3 160 373.3 160H288V112h48C344.8 112 352 104.8 352 96l-.0008-16c0-8.838-7.162-16-16-16H175.1c-8.836 0-15.1 7.162-15.1 16L160 96c0 8.836 7.164 16 16 16H224V160H47.1C21.53 160 0 181.5 0 208v64.3c0 19.06 11.28 36.32 28.75 43.98l67.25 29.46L96 374C96 397.2 117.5 416 143.1 416h256.8c13.89 0 27.08-5.203 36.59-14.75l198.4-214.4C640.5 181.7 641.4 174.1 637.9 168zM96 293.3L48 272.3V208h47.1L96 293.3z"></path>
  </symbol>
  <symbol xmlns="http://www.w3.org/2000/svg" viewBox="0 -32 576 576" id="road">
    <path fill="currentColor" d="M573.19 402.67l-139.79-320C428.43 71.29 417.6 64 405.68 64h-97.59l2.45 23.16c.5 4.72-3.21 8.84-7.96 8.84h-29.16c-4.75 0-8.46-4.12-7.96-8.84L267.91 64h-97.59c-11.93 0-22.76 7.29-27.73 18.67L2.8 402.67C-6.45 423.86 8.31 448 30.54 448h196.84l10.31-97.68c.86-8.14 7.72-14.32 15.91-14.32h68.8c8.19 0 15.05 6.18 15.91 14.32L348.62 448h196.84c22.23 0 36.99-24.14 27.73-45.33zM260.4 135.16a8 8 0 0 1 7.96-7.16h39.29c4.09 0 7.53 3.09 7.96 7.16l4.6 43.58c.75 7.09-4.81 13.26-11.93 13.26h-40.54c-7.13 0-12.68-6.17-11.93-13.26l4.59-43.58zM315.64 304h-55.29c-9.5 0-16.91-8.23-15.91-17.68l5.07-48c.86-8.14 7.72-14.32 15.91-14.32h45.15c8.19 0 15.05 6.18 15.91 14.32l5.07 48c1 9.45-6.41 17.68-15.91 17.68z"></path>
  </symbol>
  <symbol version="1.1" id="wheel" xmlns="http://www.w3.org/2000/svg" xmlns:xlink="http://www.w3.org/1999/xlink" x="0px" y="0px" xml:space="preserve" viewBox="0 0 254.532 254.532">
    <g>
      <path fill="currentColor" d="M127.267,0C57.092,0,0,57.091,0,127.266s57.092,127.266,127.267,127.266c70.174,0,127.266-57.091,127.266-127.266
		S197.44,0,127.267,0z M127.267,217.656c-49.922,0-90.391-40.468-90.391-90.39s40.469-90.39,90.391-90.39
		c49.92,0,90.39,40.468,90.39,90.39S177.186,217.656,127.267,217.656z"></path>
      <path fill="currentColor" d="M127.267,48.578c-43.39,0-78.689,35.299-78.689,78.688c0,43.389,35.3,78.688,78.689,78.688
		c43.389,0,78.688-35.299,78.688-78.688C205.955,83.877,170.655,48.578,127.267,48.578z M195.878,122.249h-38.18
		c-0.78-4.825-2.686-9.275-5.435-13.079l26.954-26.954C188.679,93.112,194.771,106.996,195.878,122.249z M132.204,58.648
		c15.244,1.087,29.123,7.156,40.025,16.591l-26.948,26.949c-3.804-2.748-8.253-4.653-13.077-5.433V58.648z M122.329,58.648v38.106
		c-4.824,0.78-9.274,2.685-13.078,5.434L82.302,75.24C93.204,65.805,107.085,59.735,122.329,58.648z M75.313,82.217l26.955,26.954
		c-2.749,3.803-4.654,8.253-5.434,13.077h-38.18C59.761,106.996,65.853,93.113,75.313,82.217z M58.643,132.123h38.192
		c0.779,4.824,2.685,9.274,5.434,13.078l-27.029,27.029C65.788,161.308,59.714,147.398,58.643,132.123z M122.329,195.884
		c-15.285-1.09-29.197-7.188-40.113-16.666l27.035-27.035c3.804,2.749,8.254,4.654,13.078,5.434V195.884z M122.329,147.459v0.072
		c-2.131-0.518-4.131-1.36-5.953-2.474l0.047-0.047c-2.85-1.738-5.244-4.132-6.982-6.983l-0.046,0.046
		c-1.114-1.822-1.956-3.821-2.474-5.952h0.071c-0.385-1.585-0.611-3.233-0.611-4.937c0-1.704,0.227-3.352,0.611-4.937h-0.071
		c0.518-2.13,1.359-4.129,2.474-5.951l0.046,0.046c1.738-2.85,4.133-5.245,6.982-6.982l-0.047-0.047
		c1.822-1.114,3.822-1.957,5.953-2.474v0.072c1.586-0.385,3.233-0.612,4.938-0.612s3.352,0.227,4.938,0.612v-0.072
		c2.131,0.518,4.13,1.359,5.951,2.473l-0.047,0.047c2.851,1.737,5.245,4.132,6.983,6.982l0.046-0.046
		c1.115,1.822,1.957,3.822,2.475,5.953h-0.071c0.385,1.585,0.611,3.233,0.611,4.937c0,1.704-0.227,3.352-0.611,4.937h0.071
		c-0.518,2.131-1.359,4.131-2.475,5.953l-0.046-0.046c-1.738,2.85-4.133,5.244-6.983,6.982l0.047,0.046
		c-1.821,1.114-3.82,1.956-5.951,2.474v-0.072c-1.586,0.385-3.233,0.612-4.938,0.612S123.915,147.845,122.329,147.459z
		 M132.204,195.884v-38.267c4.824-0.78,9.273-2.685,13.077-5.433l27.034,27.034C161.4,188.696,147.488,194.794,132.204,195.884z
		 M179.292,172.23l-27.028-27.028c2.749-3.804,4.654-8.254,5.435-13.079h38.191C194.818,147.398,188.745,161.308,179.292,172.23z"></path>
    </g>
  </symbol>
  <symbol aria-hidden="true" focusable="false" data-prefix="fas" data-icon="wrench" role="img" xmlns="http://www.w3.org/2000/svg" viewBox="0 0 512 512" id="wrench">
    <path fill="currentColor" d="M507.6 122.8c-2.904-12.09-18.25-16.13-27.04-7.338l-76.55 76.56l-83.1-.0002l0-83.1l76.55-76.56c8.791-8.789 4.75-24.14-7.336-27.04c-23.69-5.693-49.34-6.111-75.92 .2484c-61.45 14.7-109.4 66.9-119.2 129.3C189.8 160.8 192.3 186.7 200.1 210.1l-178.1 178.1c-28.12 28.12-28.12 73.69 0 101.8C35.16 504.1 53.56 512 71.1 512s36.84-7.031 50.91-21.09l178.1-178.1c23.46 7.736 49.31 10.24 76.17 6.004c62.41-9.84 114.6-57.8 129.3-119.2C513.7 172.1 513.3 146.5 507.6 122.8zM80 456c-13.25 0-24-10.75-24-24c0-13.26 10.75-24 24-24s24 10.74 24 24C104 445.3 93.25 456 80 456z"></path>
  </symbol>
</svg>